<?xml version="1.0" encoding="UTF-8" standalone="no"?>
<!-- Created with Inkscape (http://www.inkscape.org/) -->

<svg
   width="14in"
   height="8.5in"
   viewBox="0 0 355.6 215.9"
   version="1.1"
   id="svg5"
   xml:space="preserve"
   inkscape:version="1.2.2 (b0a8486, 2022-12-01)"
   sodipodi:docname="boat-templates.svg"
   xmlns:inkscape="http://www.inkscape.org/namespaces/inkscape"
   xmlns:sodipodi="http://sodipodi.sourceforge.net/DTD/sodipodi-0.dtd"
   xmlns="http://www.w3.org/2000/svg"
   xmlns:svg="http://www.w3.org/2000/svg"><sodipodi:namedview
     id="namedview7"
     pagecolor="#ffffff"
     bordercolor="#000000"
     borderopacity="0.25"
     inkscape:showpageshadow="2"
     inkscape:pageopacity="0.0"
     inkscape:pagecheckerboard="0"
     inkscape:deskcolor="#d1d1d1"
     inkscape:document-units="mm"
     showgrid="false"
     inkscape:zoom="1.7930663"
     inkscape:cx="431.10509"
     inkscape:cy="220.01418"
     inkscape:window-width="1374"
     inkscape:window-height="847"
     inkscape:window-x="66"
     inkscape:window-y="25"
     inkscape:window-maximized="0"
     inkscape:current-layer="layer1" /><defs
     id="defs2"><inkscape:path-effect
       effect="mirror_symmetry"
       start_point="23.709496,37"
       end_point="18.672046,37"
       center_point="21.190771,37"
       id="path-effect8299"
       is_visible="true"
       lpeversion="1.2"
       lpesatellites=""
       mode="free"
       discard_orig_path="false"
       fuse_paths="true"
       oposite_fuse="true"
       split_items="false"
       split_open="false"
       link_styles="false" /><inkscape:path-effect
       effect="mirror_symmetry"
       start_point="44.623317,31.779218"
       end_point="44.623317,37.340579"
       center_point="44.623317,34.559899"
       id="path-effect8297"
       is_visible="true"
       lpeversion="1.2"
       lpesatellites=""
       mode="free"
       discard_orig_path="false"
       fuse_paths="false"
       oposite_fuse="false"
       split_items="false"
       split_open="false"
       link_styles="false" /><inkscape:path-effect
       effect="mirror_symmetry"
       start_point="11.590986,28"
       end_point="53,28"
       center_point="32.295493,28"
       id="path-effect349"
       is_visible="true"
       lpeversion="1.2"
       lpesatellites=""
       mode="free"
       discard_orig_path="false"
       fuse_paths="true"
       oposite_fuse="true"
       split_items="false"
       split_open="false"
       link_styles="false" /></defs><g
     inkscape:label="Layer 1"
     inkscape:groupmode="layer"
     id="layer1"><g
       id="g8281"
       transform="translate(8.4336003,-15.03827)"><g
         id="g8267"><g
           id="g6075"
           transform="translate(-0.07400018,0.16650041)"><path
             style="fill:#fafafa;fill-opacity:1;stroke:#000000;stroke-width:0.18334;stroke-dasharray:none;stroke-opacity:1"
             d="m 30.192779,59.959051 -0.592513,2.440788 c 0,0 -0.166087,3.1266 -0.05515,3.686201 0.08699,0.438809 1.573499,0.483986 1.65434,0.04442 0.188619,-1.02561 0.05515,-6.173277 0.05515,-6.173277 z"
             id="path5259"
             sodipodi:nodetypes="ccsscc" /><path
             style="fill:#fafafa;fill-opacity:1;stroke:#000000;stroke-width:0.3;stroke-dasharray:none;stroke-opacity:1"
             d="m 30.044075,59.903148 6.401014,0.037"
             id="path6071" /></g><path
           style="fill:#fafafa;fill-opacity:1;stroke:#000000;stroke-width:0.165;stroke-dasharray:none;stroke-opacity:1"
           d="m 42.251768,69.289592 c 0.29448,0.441941 2.091465,0.365837 2.315166,-0.716595 0.37122,-1.796235 0.967931,-8.864835 0.967931,-8.864835 l -2.101818,0.03783 c 0,0 -1.063541,8.617542 -1.181279,9.543596 z"
           id="path6077"
           sodipodi:nodetypes="csccc" /><path
           style="fill:#ffffff;fill-opacity:1;stroke:#000000;stroke-width:0.165;stroke-dasharray:none;stroke-opacity:1"
           d="m 44.737381,25.475528 c 0,0 -6.029741,6.26549 -9.110879,14.61677 -3.081138,8.351281 -5.11762,17.025925 -5.11762,17.025925 l 16.97021,-0.291587 -0.337947,-16.734337 z"
           id="path6083"
           sodipodi:nodetypes="czcccc" /><g
           id="g8199"><path
             style="fill:none;fill-opacity:1;stroke:#000000;stroke-width:1;stroke-dasharray:none;stroke-opacity:1"
             d="m 47.73164,60.562775 c 0,0 -0.424651,-18.389733 -0.984158,-24.308691 -0.559507,-5.918958 -1.673069,-11.219395 -1.673069,-11.219395"
             id="path6079"
             sodipodi:nodetypes="czc" /><path
             style="fill:none;fill-opacity:1;stroke:#000000;stroke-width:1;stroke-dasharray:none;stroke-opacity:1"
             d="M 30.31205,57.413472 47.830054,57.019809"
             id="path6081" /></g><path
           style="fill:#b2b2b2;fill-opacity:1;stroke:#000000;stroke-width:0.165;stroke-dasharray:none;stroke-opacity:1"
           d="m 57.965368,60.035561 -27.602555,0.471771 0.04454,2.048196 c 0,0 7.722965,0.725583 13.355899,0.752198 5.632934,0.02662 12.426842,-0.410255 12.821991,-0.787937 0.306232,-0.292695 1.380127,-2.484228 1.380127,-2.484228 z"
           id="path5093"
           sodipodi:nodetypes="ccczsc" /></g><path
         style="fill:#ffffff;fill-opacity:1;stroke:#000000;stroke-width:0.3;stroke-dasharray:none;stroke-opacity:1"
         d="m 38.556739,56.958819 0.134813,3.370345"
         id="path8252" /><path
         style="fill:#ffffff;fill-opacity:1;stroke:#000000;stroke-width:0.3;stroke-dasharray:none;stroke-opacity:1"
         d="m 43.747068,57.228446 3.572565,2.965902"
         id="path8254" /></g><g
       id="g8293"
       transform="matrix(0.6188489,0,0,0.6188489,-2.7227387,20.483363)"><path
         style="fill:#b2b2b2;fill-opacity:1;stroke:#000000;stroke-width:0.165;stroke-dasharray:none;stroke-opacity:1"
         d="m 28.320312,20.234375 c -5.517433,-0.06015 -16.687637,1.579488 -16.742187,2.634766 -0.02149,0.415595 0.0087,4.276309 0.01563,5.130859 -0.0069,0.85455 -0.03711,4.715264 -0.01563,5.130859 0.05455,1.055278 11.224754,2.694914 16.742187,2.634766 15.499861,-0.168971 27.272296,-7.05555 27.515626,-7.365234 0.131986,-0.16798 0.162973,-0.30076 0.148437,-0.400391 0.01454,-0.09963 -0.01645,-0.232411 -0.148437,-0.400391 -0.24333,-0.309684 -12.015765,-7.196263 -27.515626,-7.365234 z"
         id="path345"
         sodipodi:nodetypes="cssscc"
         inkscape:path-effect="#path-effect349"
         inkscape:original-d="m 11.594181,28.166992 c 0,0 -0.04071,-4.829211 -0.01653,-5.296891 0.05455,-1.055278 11.224513,-2.695204 16.741947,-2.635056 15.499861,0.168971 27.273974,7.055216 27.517303,7.3649 0.346875,0.441467 -0.01653,0.637497 -0.01653,0.637497 z"
         class="UnoptimicedTransforms"
         transform="translate(0.07317868,12.73309)" /><circle
         style="fill:#000000;stroke:#000000;stroke-width:0.165;stroke-dasharray:none;stroke-opacity:1"
         id="path1080"
         cx="53.907661"
         cy="15.814718"
         r="0.62094098"
         transform="rotate(30.3)" /><rect
         style="fill:#ffffff;fill-opacity:1;stroke:#000000;stroke-width:0.111826;stroke-dasharray:none;stroke-opacity:1"
         id="rect5007"
         width="4.9171157"
         height="0.73812139"
         x="31.362064"
         y="40.398155" /><g
         id="g5003"><path
           style="fill:#f6f6f6;fill-opacity:1;stroke:#000000;stroke-width:0.3;stroke-dasharray:none;stroke-opacity:1"
           d="m 38.655967,40.753135 c 0,0 -1.822147,-4.130356 -6.065228,-6.871058 -6.263974,-4.046043 -15.244608,-5.598445 -15.244608,-5.598445 z"
           id="path1183"
           sodipodi:nodetypes="cscc" /><rect
           style="fill:#000000;fill-opacity:1;stroke:none;stroke-width:1.6159;stroke-dasharray:none;stroke-opacity:1"
           id="rect4045"
           width="25.319822"
           height="0.73178673"
           x="28.514658"
           y="15.448828"
           transform="rotate(30.3)" /></g><g
         id="g8195"><rect
           style="fill:#ffffff;fill-opacity:1;stroke:#000000;stroke-width:0.0927218;stroke-dasharray:none;stroke-opacity:1"
           id="rect4779"
           width="3.2952933"
           height="0.75722522"
           x="8.7916946"
           y="40.388603" /><path
           style="fill:#ffffff;fill-opacity:1;stroke:#000000;stroke-width:0.339692;stroke-dasharray:none;stroke-opacity:1"
           d="M 8.8037254,40.761025 21.470397,40.711981"
           id="path8191" /></g><path
         style="fill:#ffffff;fill-opacity:1;stroke:#000000;stroke-width:0.3;stroke-dasharray:none;stroke-opacity:1"
         d="m 26.693127,33.905663 0.674068,7.010318"
         id="path8256" /></g><g
       id="g8769"><g
         id="g8755"><path
           style="fill:#b2b2b2;fill-opacity:1;stroke:#000000;stroke-width:1;stroke-dasharray:none;stroke-opacity:1"
           d="m 76.275622,41.742878 6.223484,-0.0759"
           id="path8303" /><path
           style="fill:#b2b2b2;fill-opacity:1;stroke:#000000;stroke-width:0.212887;stroke-dasharray:none;stroke-opacity:1"
           d="M 80.50404,41.937756 77.369344,45.38128"
           id="path8305" /><path
           style="fill:#b2b2b2;fill-opacity:1;stroke:#000000;stroke-width:0.165;stroke-dasharray:none;stroke-opacity:1"
           d="m 78.335822,41.720426 -1.320269,3.432693"
           id="path8307" /><path
           style="fill:#ffffff;fill-opacity:1;stroke:#000000;stroke-width:0.165;stroke-dasharray:none;stroke-opacity:1"
           d="m 76.756902,9.857991 c 0,0 3.990307,7.027547 4.840979,12.850596 0.850672,5.823048 1.637039,12.625962 0.704142,18.571749 l -5.193051,0.08802 z"
           id="path8309"
           sodipodi:nodetypes="czccc" /><path
           style="fill:#ffffff;fill-opacity:1;stroke:#000000;stroke-width:0.165;stroke-dasharray:none;stroke-opacity:1"
           d="M 76.575467,47.969688 V 44.272943"
           id="path8743" /><rect
           style="fill:#ffffff;fill-opacity:1;stroke:#000000;stroke-width:0.178334;stroke-dasharray:none;stroke-opacity:1"
           id="rect8745"
           width="0.5147723"
           height="10.10871"
           x="76.35939"
           y="44.367626" /><path
           style="fill:#b2b2b2;fill-opacity:1;stroke:#000000;stroke-width:1.01582;stroke-dasharray:none;stroke-opacity:1"
           d="M 76.577103,45.234102 V 8.974254"
           id="path8301" /><path
           style="fill:#b2b2b2;fill-opacity:1;stroke:#000000;stroke-width:0.15467;stroke-dasharray:none;stroke-opacity:1"
           d="m 21.109375,32.382812 c -0.556806,0.0064 -1.0625,0.06641 -1.0625,0.06641 L 20.029297,37 l 0.01758,4.550781 c 0,0 2.024726,0.242349 2.429687,-0.193359 C 22.826943,40.980439 23.337575,37.839864 23.46875,37 23.337575,36.160136 22.826943,33.019561 22.476562,32.642578 22.274082,32.424724 21.666181,32.376427 21.109375,32.382812 Z"
           id="path8295"
           inkscape:path-effect="#path-effect8299"
           inkscape:original-d="m 20.046432,32.449739 c 0,0 2.024744,-0.243397 2.429706,0.192311 0.404961,0.435707 1.023464,4.563768 1.023464,4.563768 l -3.470046,-0.116001 z"
           class="UnoptimicedTransforms"
           sodipodi:nodetypes="czccc"
           transform="matrix(0,0.86507511,-1.0011653,0,113.63096,27.694798)" /></g><path
         style="fill:#ffffff;fill-opacity:1;stroke:#000000;stroke-width:0.165;stroke-dasharray:none;stroke-opacity:1"
         d="m 76.631558,44.723319 v 3.406079"
         id="path8757" /></g></g></svg>
